PathFileType	4	(X/Y/Z)	C:\Users\WrightLab\Desktop\Jo\P4V127.trc
DataRate	CameraRate	NumFrames	NumMarkers	Units	OrigDataRate	OrigDataStartFrame	OrigNumFrames
100.00	100.00	       11	19	mm	100.00	241	       642
Frame#	Time	Headset_Front			Headset_Back			Headset_Left			Headset_Right			Left_Shoulder			Right_Shoulder			Sternum			C7			Left Elbow			Right Elbow			Left Wrist			Right Wrist			Left ASIS			Right ASIS			S2			Left Knee			Right Knee			Left Ankle			Right Ankle			
		X1	Y1	Z1	X2	Y2	Z2	X3	Y3	Z3	X4	Y4	Z4	X5	Y5	Z5	X6	Y6	Z6	X7	Y7	Z7	X8	Y8	Z8	X9	Y9	Z9	X10	Y10	Z10	X11	Y11	Z11	X12	Y12	Z12	X13	Y13	Z13	X14	Y14	Z14	X15	Y15	Z15	X16	Y16	Z16	X17	Y17	Z17	X18	Y18	Z18	X19	Y19	Z19	

241	2.400				-554.77502	1727.94141	-838.78656							-571.08301	1428.86877	-621.76593	-712.17987	1493.73071	-761.41907	-412.56366	1476.31555	-715.20612	-557.67047	1511.54480	-795.99799	-283.36972	1122.37402	-722.43536	-867.83801	1150.07288	-763.02985	-308.72787	826.65588	-627.73224	-880.48511	927.89868	-553.31995	-464.90598	982.23895	-606.97473	-790.68024	997.00037	-678.58759				-530.81158	519.60266	-514.71338	-820.69965	522.91998	-781.43396	-652.50037	38.36614	-529.39514				
242	2.410				-554.92896	1729.30176	-828.89551							-569.79742	1430.22778	-610.76904	-712.66296	1495.93713	-749.30682	-412.65024	1478.72632	-707.10101	-558.13458	1513.93958	-785.52136	-284.02115	1124.11560	-712.72900	-867.67212	1152.15649	-751.36084	-308.88507	829.46503	-616.04437	-880.43500	928.84528	-541.92993	-462.82733	984.93390	-595.86243	-786.85840	996.99072	-665.56073				-529.15955	520.08960	-507.54639	-828.17151	523.59277	-758.66852	-652.50037	38.36614	-529.39514				
243	2.420				-555.03778	1730.98645	-818.78497							-570.12744	1432.87476	-600.07526	-713.11139	1498.36243	-737.19019	-412.58240	1480.40039	-697.03650	-558.95105	1516.14526	-775.24945	-284.39447	1126.26514	-702.06262	-867.97986	1154.47852	-740.28961	-309.51907	831.21124	-603.63849	-879.12000	930.12103	-530.58661	-460.42892	986.82397	-586.68878	-788.16742	1001.13550	-649.89734				-525.14221	520.76941	-500.89844	-833.87762	524.93677	-735.38635	-652.50037	38.36614	-529.39514				
244	2.430	-435.68451	1625.28943	-514.00537	-555.10614	1733.03516	-808.90167							-569.34100	1434.96252	-589.39349	-713.61774	1500.27039	-725.26154	-413.31503	1481.89001	-685.58997	-559.99756	1518.21570	-764.54156	-284.44528	1127.20618	-691.83508	-868.67426	1156.40527	-728.60883	-311.67532	834.15979	-593.09167	-878.33038	931.09137	-519.93756	-458.55545	988.52716	-577.05975	-784.59644	1003.29279	-637.86517				-525.54651	519.88654	-495.39584	-838.24738	525.87805	-711.49268	-652.50037	38.36614	-529.39514				
245	2.440	-435.26935	1627.57813	-502.64490	-555.40210	1735.08008	-798.51013							-569.23627	1437.36084	-579.56177	-714.94958	1503.00769	-713.35181	-412.75073	1482.93884	-670.83984	-561.07703	1520.25684	-753.84418	-284.91040	1129.39368	-681.43823	-869.38428	1158.41113	-716.98236	-311.45831	837.66364	-579.82971	-877.70050	933.55737	-508.34268	-456.75720	989.41046	-568.00928	-784.14087	1004.30304	-629.46637				-525.64844	520.33820	-490.91751	-841.69135	526.85541	-686.66528	-653.43121	38.38845	-528.68634				
246	2.450	-434.98398	1629.78247	-491.13931	-555.91272	1736.91736	-788.16119							-568.15027	1438.08606	-568.40369	-715.50269	1504.83130	-701.12750	-412.96271	1486.06641	-661.26971	-562.26221	1522.41968	-743.15973	-285.47098	1132.26648	-671.76013	-870.08826	1160.68359	-705.49738	-312.57733	840.63232	-566.01996	-877.02240	934.41327	-498.72797	-454.66006	990.42932	-560.55310	-781.94501	1006.48938	-614.89893				-523.20801	520.38794	-486.50232	-844.03052	529.01056	-662.58032	-653.43121	38.38845	-528.68634				
247	2.460	-434.66577	1632.18982	-480.07864	-556.29169	1738.86023	-778.45850							-567.58917	1439.79224	-558.42310	-716.01031	1506.98657	-690.00482	-413.86224	1487.49658	-653.27350	-563.13922	1524.89258	-733.54828	-285.25034	1134.00073	-662.03949	-871.23553	1162.98059	-693.52441	-314.09122	843.88629	-553.04779	-875.45898	936.40326	-486.61749	-452.19312	992.14343	-551.92499	-781.40979	1009.98651	-600.77197				-524.59125	518.89508	-485.05978	-845.72589	531.49817	-638.62067	-654.17316	38.17861	-528.58154				
248	2.470	-434.65317	1633.67603	-469.01254	-556.79059	1740.80115	-768.45490							-568.71838	1442.71179	-548.92383	-716.34106	1508.61621	-677.88867	-414.47513	1490.59082	-649.78046	-564.13428	1526.94275	-723.59253	-285.82040	1136.03125	-652.13446	-872.53180	1165.24658	-681.77740	-314.94037	849.32703	-538.13831	-875.28064	938.05566	-476.61163	-449.60147	992.71649	-542.39026	-779.43860	1012.86249	-591.74585				-523.41278	518.86920	-481.26147	-846.78479	534.79962	-614.87378	-653.43121	38.38845	-528.68634				
249	2.480	-434.53760	1635.72363	-457.61157	-557.33899	1742.83240	-758.09119							-567.07910	1444.26904	-538.91705	-717.02155	1510.21570	-666.70844	-414.56927	1492.67285	-641.46765	-565.03809	1528.78674	-713.32886	-285.85007	1138.52539	-642.99622	-873.74384	1167.18347	-669.76697	-315.71027	853.51593	-524.75885	-874.13580	940.32050	-465.15250	-447.41306	994.01416	-535.44788	-777.09521	1015.94965	-577.27063				-522.19104	519.00739	-479.60101	-847.30853	538.42712	-590.25690	-652.68909	38.59847	-528.79108				
250	2.490	-434.60977	1637.53748	-447.26733	-557.82501	1745.09485	-748.82385							-566.85132	1445.50989	-529.41785	-717.61163	1511.95679	-656.09875	-414.64069	1494.55969	-628.37115	-565.82990	1531.02441	-703.49738	-285.95047	1140.50098	-632.67981	-875.26923	1169.66675	-657.84131	-316.38519	857.25861	-509.63242	-872.39508	940.74597	-454.19916	-445.56699	995.74390	-527.05573	-775.55231	1017.42395	-571.53851				-520.61108	518.57129	-477.03009	-846.92999	542.10175	-565.51660	-652.50037	38.36614	-529.39514				
251	2.500	-434.63202	1639.53906	-436.46988	-558.47974	1747.07690	-738.36383							-565.96936	1447.32825	-519.59784	-717.80078	1513.77771	-645.68597	-414.17706	1497.33740	-618.38550	-566.71844	1532.87427	-693.99097	-286.04599	1143.59204	-624.01428	-875.17780	1171.22974	-646.08075	-317.15341	862.05078	-495.51608	-871.51740	942.56287	-442.74710	-443.15430	996.02069	-520.59747	-773.49365	1021.88184	-550.80237				-518.93213	518.08069	-473.68399	-845.53314	545.57886	-541.60876	-652.50037	38.36614	-529.39514				
